<svg width="12" height="13" viewBox="0 0 12 13" fill="none" xmlns="http://www.w3.org/2000/svg">
<path d="M7.14982 6.09208C7.13818 6.08047 7.12894 6.06668 7.12264 6.05149C7.11634 6.03631 7.1131 6.02003 7.1131 6.00358C7.1131 5.98714 7.11634 5.97086 7.12264 5.95568C7.12894 5.94049 7.13818 5.9267 7.14982 5.91508L11.7813 1.28408C11.922 1.14325 12.0009 0.952328 12.0007 0.753305C12.0006 0.554282 11.9214 0.363466 11.7806 0.222835C11.6397 0.0822042 11.4488 0.00327751 11.2498 0.00341816C11.0508 0.00355881 10.86 0.0827552 10.7193 0.223585L6.08832 4.85258C6.07671 4.86422 6.06291 4.87346 6.04773 4.87976C6.03254 4.88606 6.01626 4.88931 5.99982 4.88931C5.98338 4.88931 5.9671 4.88606 5.95191 4.87976C5.93672 4.87346 5.92293 4.86422 5.91132 4.85258L1.28032 0.223585C1.21069 0.153919 1.12801 0.0986502 1.03702 0.0609345C0.946027 0.0232189 0.848496 0.00379491 0.749996 0.0037717C0.551067 0.00372481 0.360267 0.0827041 0.219569 0.223335C0.078872 0.363966 -0.000197236 0.554729 -0.00024412 0.753658C-0.000291004 0.952587 0.0786883 1.14339 0.219319 1.28408L4.84982 5.91508C4.86146 5.9267 4.8707 5.94049 4.877 5.95568C4.8833 5.97086 4.88654 5.98714 4.88654 6.00358C4.88654 6.02003 4.8833 6.03631 4.877 6.05149C4.8707 6.06668 4.86146 6.08047 4.84982 6.09208L0.219319 10.7236C0.149686 10.7932 0.0944562 10.8759 0.0567834 10.967C0.0191106 11.058 -0.000267334 11.1555 -0.00024412 11.254C-0.000197236 11.4529 0.078872 11.6437 0.219569 11.7843C0.289236 11.854 0.371935 11.9092 0.462946 11.9469C0.553957 11.9845 0.651496 12.0039 0.749996 12.0039C0.948925 12.0038 1.13969 11.9248 1.28032 11.7841L5.91132 7.15258C5.92293 7.14094 5.93672 7.13171 5.95191 7.12541C5.9671 7.1191 5.98338 7.11586 5.99982 7.11586C6.01626 7.11586 6.03254 7.1191 6.04773 7.12541C6.06291 7.13171 6.07671 7.14094 6.08832 7.15258L10.7193 11.7841C10.86 11.9248 11.0507 12.0038 11.2496 12.0039C11.4486 12.0039 11.6394 11.925 11.7801 11.7843C11.9208 11.6437 11.9998 11.4529 11.9999 11.254C11.9999 11.0551 11.921 10.8643 11.7803 10.7236L7.14982 6.09208Z" fill="white"/>
</svg>
