<svg width="14" height="14" viewBox="0 0 14 14" fill="none" xmlns="http://www.w3.org/2000/svg">
<path fill-rule="evenodd" clip-rule="evenodd" d="M1.21639 10.9299L5.13559 6.98698L1.21639 3.06778C0.717583 2.56897 0.717583 1.73762 1.21639 1.21506C1.73895 0.716256 2.5703 0.716256 3.0691 1.21506L6.9883 5.13426L10.9313 1.21506C11.4301 0.716256 12.2614 0.716256 12.784 1.21506C13.2828 1.73762 13.2828 2.56897 12.784 3.06778L8.84102 6.98698L12.784 10.9299C13.2828 11.4287 13.2828 12.2601 12.784 12.7826C12.2614 13.2814 11.4301 13.2814 10.9313 12.7826L6.9883 8.83969L3.0691 12.7826C2.5703 13.2814 1.73895 13.2814 1.21639 12.7826C0.717583 12.2601 0.717583 11.4287 1.21639 10.9299Z" fill="#000000"/>
</svg>
