<svg width="19" height="20" viewBox="0 0 19 20" fill="none" xmlns="http://www.w3.org/2000/svg">
<g clip-path="url(#clip0)">
<g filter="url(#filter0_d)">
<path d="M11.3723 8.50067L17.7284 2.14433C17.9033 1.96935 17.9997 1.73591 18 1.48699C18 1.23794 17.9035 1.00422 17.7284 0.829522L17.1714 0.272668C16.9963 0.0972776 16.7629 0.0012207 16.5137 0.0012207C16.2649 0.0012207 16.0315 0.0972776 15.8563 0.272668L9.50028 6.6286L3.14394 0.272668C2.9691 0.0972776 2.73552 0.0012207 2.48646 0.0012207C2.23768 0.0012207 2.00411 0.0972776 1.82927 0.272668L1.272 0.829522C0.909333 1.19219 0.909333 1.78207 1.272 2.14433L7.6282 8.50067L1.272 14.8567C1.09702 15.032 1.00069 15.2654 1.00069 15.5143C1.00069 15.7633 1.09702 15.9967 1.272 16.1718L1.82913 16.7287C2.00397 16.9039 2.23768 17.0001 2.48633 17.0001C2.73538 17.0001 2.96896 16.9039 3.1438 16.7287L9.50014 10.3726L15.8562 16.7287C16.0313 16.9039 16.2648 17.0001 16.5135 17.0001H16.5138C16.7627 17.0001 16.9962 16.9039 17.1713 16.7287L17.7283 16.1718C17.9031 15.9968 17.9996 15.7633 17.9996 15.5143C17.9996 15.2654 17.9031 15.032 17.7283 14.8569L11.3723 8.50067Z" fill="white"/>
</g>
</g>
<defs>
<filter id="filter0_d" x="-1" y="-0.998779" width="21" height="20.9989" filterUnits="userSpaceOnUse" color-interpolation-filters="sRGB">
<feFlood flood-opacity="0" result="BackgroundImageFix"/>
<feColorMatrix in="SourceAlpha" type="matrix" values="0 0 0 0 0 0 0 0 0 0 0 0 0 0 0 0 0 0 127 0"/>
<feOffset dy="1"/>
<feGaussianBlur stdDeviation="1"/>
<feColorMatrix type="matrix" values="0 0 0 0 0 0 0 0 0 0 0 0 0 0 0 0 0 0 0.5 0"/>
<feBlend mode="normal" in2="BackgroundImageFix" result="effect1_dropShadow"/>
<feBlend mode="normal" in="SourceGraphic" in2="effect1_dropShadow" result="shape"/>
</filter>
<clipPath id="clip0">
<rect width="19" height="20" fill="white"/>
</clipPath>
</defs>
</svg>
