<svg width="12" height="13" viewBox="0 0 12 13" fill="none" xmlns="http://www.w3.org/2000/svg">
<path d="M7.15006 6.09208C7.13842 6.08047 7.12919 6.06668 7.12288 6.05149C7.11658 6.03631 7.11334 6.02003 7.11334 6.00358C7.11334 5.98714 7.11658 5.97086 7.12288 5.95568C7.12919 5.94049 7.13842 5.9267 7.15006 5.91508L11.7816 1.28408C11.9222 1.14325 12.0011 0.952328 12.001 0.753305C12.0008 0.554282 11.9216 0.363466 11.7808 0.222835C11.64 0.0822042 11.4491 0.00327751 11.25 0.00341816C11.051 0.00355881 10.8602 0.0827552 10.7196 0.223585L6.08856 4.85258C6.07695 4.86422 6.06316 4.87346 6.04797 4.87976C6.03278 4.88606 6.0165 4.88931 6.00006 4.88931C5.98362 4.88931 5.96734 4.88606 5.95215 4.87976C5.93697 4.87346 5.92317 4.86422 5.91156 4.85258L1.28056 0.223585C1.21093 0.153919 1.12826 0.0986502 1.03726 0.0609345C0.946271 0.0232189 0.84874 0.00379491 0.75024 0.0037717C0.551311 0.00372481 0.360511 0.0827041 0.219814 0.223335C0.0791162 0.363966 4.6905e-05 0.554729 2.08617e-08 0.753658C-4.68632e-05 0.952587 0.0789325 1.14339 0.219564 1.28408L4.85006 5.91508C4.8617 5.9267 4.87094 5.94049 4.87724 5.95568C4.88354 5.97086 4.88679 5.98714 4.88679 6.00358C4.88679 6.02003 4.88354 6.03631 4.87724 6.05149C4.87094 6.06668 4.8617 6.08047 4.85006 6.09208L0.219564 10.7236C0.14993 10.7932 0.0947003 10.8759 0.0570276 10.967C0.0193548 11.058 -2.31938e-05 11.1555 2.08617e-08 11.254C4.6905e-05 11.4529 0.0791162 11.6437 0.219814 11.7843C0.28948 11.854 0.372179 11.9092 0.46319 11.9469C0.554201 11.9845 0.651741 12.0039 0.75024 12.0039C0.94917 12.0038 1.13993 11.9248 1.28056 11.7841L5.91156 7.15258C5.92317 7.14094 5.93697 7.13171 5.95215 7.12541C5.96734 7.1191 5.98362 7.11586 6.00006 7.11586C6.0165 7.11586 6.03278 7.1191 6.04797 7.12541C6.06316 7.13171 6.07695 7.14094 6.08856 7.15258L10.7196 11.7841C10.8602 11.9248 11.051 12.0038 11.2499 12.0039C11.4488 12.0039 11.6396 11.925 11.7803 11.7843C11.921 11.6437 12.0001 11.4529 12.0001 11.254C12.0002 11.0551 11.9212 10.8643 11.7806 10.7236L7.15006 6.09208Z" fill="#6E6F70"/>
</svg>
