<svg width="15" height="15" viewBox="0 0 15 15" fill="none" xmlns="http://www.w3.org/2000/svg">
<path d="M1.40625 10.3444C1.40709 9.11661 2.02381 7.97116 3.04831 7.29455C4.0728 6.61795 5.36841 6.50045 6.49792 6.98169" stroke="#48484E" stroke-width="1.5" stroke-linecap="round" stroke-linejoin="round"/>
<path fill-rule="evenodd" clip-rule="evenodd" d="M5.06251 5.87549C6.29651 5.87549 7.29688 4.87512 7.29688 3.64111C7.29688 2.4071 6.29651 1.40674 5.06251 1.40674C3.8285 1.40674 2.82812 2.4071 2.82812 3.64111C2.82812 4.87512 3.8285 5.87549 5.06251 5.87549Z" stroke="#48484E" stroke-width="1.5" stroke-linecap="round" stroke-linejoin="round"/>
<path fill-rule="evenodd" clip-rule="evenodd" d="M10.3438 13.593C12.1387 13.593 13.5938 12.1379 13.5938 10.343C13.5938 8.54809 12.1387 7.09302 10.3438 7.09302C8.54882 7.09302 7.09375 8.54809 7.09375 10.343C7.09375 12.1379 8.54882 13.593 10.3438 13.593Z" stroke="#48484E" stroke-width="1.5" stroke-linecap="round" stroke-linejoin="round"/>
<path d="M8.0459 12.6404L12.6414 8.04492" stroke="#48484E" stroke-width="1.5" stroke-linecap="round" stroke-linejoin="round"/>
</svg>
