<?xml version="1.0" encoding="UTF-8"?>
<svg width="14px" height="18px" viewBox="0 0 14 18" version="1.1" xmlns="http://www.w3.org/2000/svg" xmlns:xlink="http://www.w3.org/1999/xlink">
    <title>Programming-Apps-Websites / UI-Components / user-live</title>
    <g id="Page-1" stroke="none" stroke-width="1" fill="none" fill-rule="evenodd">
        <g id="Search-Active-Copy" transform="translate(-1201.000000, -205.000000)" fill="#fcfcfc">
            <g id="Search-Live-Copy" transform="translate(1189.000000, 156.000000)">
                <g id="Group-Copy-3">
                    <g id="Group-6" transform="translate(0.000000, 34.000000)">
                        <g id="Programming-Apps-Websites-/-UI-Components-/-user-live" transform="translate(10.000000, 15.000000)">
                            <path d="M7.3125,12.75 C7.00183983,12.75 6.75,13.0018398 6.75,13.3125 L6.75,17.0625 C6.75,17.3731602 7.00183983,17.625 7.3125,17.625 C7.62316017,17.625 7.875,17.3731602 7.875,17.0625 L7.875,13.3125 C7.875,13.0018398 7.62316017,12.75 7.3125,12.75 Z" id="Shape"></path>
                            <path d="M11.25,12.75 C10.9393398,12.75 10.6875,13.0018398 10.6875,13.3125 L10.6875,14.5875 C10.6815418,14.9220786 10.613646,15.2526575 10.48725,15.5625 C10.4592223,15.6345685 10.3898267,15.6820391 10.3125,15.6820391 C10.2351733,15.6820391 10.1657777,15.6345685 10.13775,15.5625 C10.011354,15.2526575 9.94345822,14.9220786 9.9375,14.5875 L9.9375,13.3125 C9.93749999,13.0018398 9.68566016,12.75 9.375,12.75 C9.06433984,12.75 8.8125,13.0018398 8.8125,13.3125 L8.8125,14.5875 C8.88016398,15.59735 9.23857586,16.5660519 9.8445,17.37675 C9.94882866,17.5332123 10.1244444,17.6271887 10.3125,17.6271887 C10.5005556,17.6271887 10.6761713,17.5332123 10.7805,17.37675 C11.3864241,16.5660519 11.744836,15.59735 11.8125,14.5875 L11.8125,13.3125 C11.8125,13.0018398 11.5606602,12.75 11.25,12.75 Z" id="Shape"></path>
                            <path d="M5.625,17.0625 C5.625,16.7518398 5.37316017,16.5 5.0625,16.5 L4.3125,16.5 C4.20894661,16.5 4.125,16.4160534 4.125,16.3125 L4.125,13.3125 C4.125,13.0018398 3.87316017,12.75 3.5625,12.75 C3.25183983,12.75 3,13.0018398 3,13.3125 L3,16.3125 C3.00082662,17.0370311 3.58796894,17.6241734 4.3125,17.625 L5.0625,17.625 C5.21168428,17.625 5.35475835,17.5657368 5.46024756,17.4602476 C5.56573678,17.3547584 5.625,17.2116843 5.625,17.0625 Z" id="Shape"></path>
                            <path d="M13.875,14.0625 C13.875,13.9589466 13.9589466,13.875 14.0625,13.875 L14.8125,13.875 C15.1231602,13.875 15.375,13.6231602 15.375,13.3125 C15.375,13.0018398 15.1231602,12.75 14.8125,12.75 L14.0625,12.75 C13.3379689,12.7508266 12.7508266,13.3379689 12.75,14.0625 L12.75,16.3125 C12.7508266,17.0370311 13.3379689,17.6241734 14.0625,17.625 L14.8125,17.625 C15.1231602,17.625 15.375,17.3731602 15.375,17.0625 C15.375,16.7518398 15.1231602,16.5 14.8125,16.5 L14.0625,16.5 C13.9589466,16.5 13.875,16.4160534 13.875,16.3125 C13.875,16.2089466 13.9589466,16.125 14.0625,16.125 L14.8125,16.125 C15.1231602,16.125 15.375,15.8731602 15.375,15.5625 C15.375,15.2518398 15.1231602,15 14.8125,15 L14.0625,15 C13.9589466,15 13.875,14.9160534 13.875,14.8125 L13.875,14.0625 Z" id="Shape"></path>
                            <circle id="Oval" cx="9.00975" cy="6.7665" r="1.77225"></circle>
                            <path d="M9.00975,9.18225 C7.75237443,9.18273389 6.63915277,9.99499472 6.255,11.19225 C6.23609811,11.2493049 6.24617263,11.3119908 6.282,11.36025 C6.31733206,11.4075571 6.37295507,11.4353686 6.432,11.4352504 L11.5845,11.4352504 C11.6445046,11.4352868 11.7009023,11.4066024 11.736213,11.3580874 C11.7715237,11.3095723 11.7814814,11.2470876 11.763,11.19 C11.3776192,9.99459861 10.2657359,9.18378097 9.00975,9.18225 L9.00975,9.18225 Z" id="Shape"></path>
                            <path d="M9,2.62499981 C7.54782187,2.62456383 6.20238786,3.38774707 5.45760122,4.6343883 C4.71281457,5.88102952 4.67840344,7.42746323 5.367,8.706 C5.46579597,8.88753119 5.65607616,9.00037511 5.86275,9.00000569 C5.95578578,9.00042361 6.04740316,8.97719667 6.129,8.9325 C6.40113884,8.78425164 6.50181717,8.44362329 6.354,8.17125 C5.67531634,6.90905832 5.98411467,5.3431036 7.09115456,4.43304754 C8.19819446,3.52299148 9.79430554,3.52299148 10.9013454,4.43304754 C12.0083853,5.3431036 12.3171837,6.90905832 11.6385,8.17125 C11.5034225,8.4431901 11.6082144,8.77325666 11.8754178,8.9174777 C12.1426212,9.06169875 12.4760513,8.96815931 12.62925,8.706 C13.3175298,7.4280518 13.2834878,5.88240344 12.5396105,4.6359977 C11.7957331,3.38959197 10.4515095,2.62588348 9,2.62499981 L9,2.62499981 Z" id="Shape"></path>
                            <path d="M9,0.375 C5.48089802,0.379132831 2.62913283,3.23089802 2.62496483,6.75 C2.62028029,8.164845 3.09065626,9.54031836 3.96075,10.656 C4.15128824,10.9016286 4.50487135,10.9462882 4.75049999,10.75575 C4.99612862,10.5652117 5.04078822,10.2116286 4.85025,9.966 C4.13343143,9.04760739 3.74595134,7.91501393 3.75,6.75 C3.75000006,3.85050511 6.10050511,1.50000011 9,1.50000011 C11.8994949,1.50000011 14.2499999,3.85050511 14.25,6.75 C14.2541129,7.91560674 13.8663536,9.04877269 13.149,9.9675 C13.0189524,10.1255775 12.9850438,10.341823 13.0604644,10.5321191 C13.1358849,10.7224152 13.3087274,10.8567185 13.5117578,10.8827863 C13.7147882,10.9088541 13.9159526,10.8225709 14.037,10.6575 C14.9087366,9.54198858 15.379996,8.16572082 15.3750393,6.75 C15.3708672,3.23089802 12.519102,0.379132831 9,0.375 Z" id="Shape"></path>
                        </g>
                    </g>
                </g>
            </g>
        </g>
    </g>
</svg>
