<?xml version="1.0" encoding="UTF-8"?>
<svg width="14px" height="14px" viewBox="0 0 14 14" version="1.1" xmlns="http://www.w3.org/2000/svg" xmlns:xlink="http://www.w3.org/1999/xlink">
    <title>Interface-Essential / Text-Formatting / hash</title>
    <g id="Page-1" stroke="none" stroke-width="1" fill="none" fill-rule="evenodd">
        <g id="Search-Active-Copy" transform="translate(-1201.000000, -314.000000)" fill="#fcfcfc">
            <g id="Search-Live-Copy" transform="translate(1189.000000, 156.000000)">
                <g id="Group-Copy-3">
                    <g id="Group-6" transform="translate(0.000000, 34.000000)">
                        <g id="Interface-Essential-/-Text-Formatting-/-hash" transform="translate(12.000000, 124.000000)">
                            <path d="M13.125,4.32075 L10.3500833,4.32075 C10.3068029,4.32076443 10.2657521,4.30155392 10.2380336,4.26831424 C10.2103151,4.23507455 10.1987929,4.19124015 10.2065833,4.14866667 L10.7794167,1.0045 C10.8262036,0.74837034 10.7327929,0.486736254 10.5343716,0.318152771 C10.3359502,0.149569288 10.0626632,0.0996482526 9.81745491,0.187194435 C9.57224666,0.274740618 9.39237023,0.486453671 9.34558333,0.742583333 L8.715,4.2 C8.70235496,4.26939122 8.64203346,4.31990434 8.5715,4.32016667 L6.45225,4.32016667 C6.40896961,4.3201811 6.36791875,4.30097059 6.34020024,4.26773091 C6.31248172,4.23449122 6.30095953,4.19065681 6.30875,4.14808333 L6.88216667,1.00391667 C6.94715523,0.611264167 6.6852842,0.239033611 6.29376315,0.167544001 C5.9022421,0.0960543902 5.52572101,0.351718026 5.44775,0.742 L4.81716667,4.2 C4.80452163,4.26939122 4.74420013,4.31990434 4.67366667,4.32016667 L1.99033333,4.32016667 C1.58762571,4.32016668 1.26116669,4.64662571 1.26116669,5.04933333 C1.26116669,5.45204095 1.58762571,5.77849999 1.99033333,5.7785 L4.35458333,5.7785 C4.39820377,5.77925243 4.43923644,5.79934134 4.46658333,5.83333333 C4.49460112,5.8663933 4.50617839,5.91034404 4.49808333,5.95291667 L4.10666667,8.09841667 C4.09398832,8.16770148 4.03360192,8.21802348 3.96316667,8.218 L0.875,8.218 C0.47229237,8.218 0.145833333,8.54445904 0.145833333,8.94716667 C0.145833333,9.3498743 0.47229237,9.67633333 0.875,9.67633333 L3.64408333,9.67633333 C3.68737496,9.67626811 3.7284393,9.69551702 3.75608333,9.72883333 C3.78324429,9.76118973 3.79476804,9.80387027 3.78758333,9.8455 L3.21475,12.9896667 C3.14976144,13.3823192 3.41163247,13.7545497 3.80315352,13.8260393 C4.19467457,13.8975289 4.57119566,13.6418653 4.64916667,13.2515833 L5.27916667,9.793 C5.29348078,9.72512363 5.35329758,9.67649208 5.42266667,9.67633333 L7.54191667,9.67633333 C7.58519706,9.6763189 7.62624791,9.69552941 7.65396643,9.72876909 C7.68168495,9.76200878 7.69320714,9.80584319 7.68541667,9.84841667 L7.112,12.9925833 C7.04701144,13.3852358 7.30888247,13.7574664 7.70040352,13.828956 C8.09192457,13.9004456 8.46844566,13.644782 8.54641667,13.2545 L9.177,9.79591667 C9.19111107,9.7279166 9.25105126,9.67918474 9.3205,9.67925 L12.0114167,9.67925 C12.4141243,9.67925 12.7405833,9.35279096 12.7405833,8.95008333 C12.7405833,8.5473757 12.4141243,8.22091667 12.0114167,8.22091667 L9.63958333,8.22091667 C9.59630294,8.2209311 9.55525209,8.20172059 9.52753357,8.16848091 C9.49981505,8.13524122 9.48829286,8.09140681 9.49608333,8.04883333 L9.8875,5.90158333 C9.90017834,5.83229852 9.96056474,5.78197652 10.031,5.782 L13.1226667,5.782 C13.5253743,5.782 13.8518333,5.45554096 13.8518333,5.05283333 C13.8518333,4.6501257 13.5253743,4.32366667 13.1226667,4.32366667 L13.125,4.32075 Z M8.0045,8.09841667 C7.99182166,8.16770148 7.93143526,8.21800001 7.861,8.21800001 L5.74175,8.21800001 C5.69846961,8.21800001 5.65741875,8.19880392 5.62970024,8.16556424 C5.60198172,8.13232455 5.59045953,8.08849015 5.59825,8.04591667 L5.98966667,5.89866667 C6.00255934,5.82950725 6.0628161,5.77929328 6.13316667,5.77908191 L8.25241667,5.77908191 C8.29564628,5.77889228 8.33671448,5.797967 8.36445618,5.8311217 C8.39219787,5.86427641 8.40372975,5.9080652 8.39591667,5.95058333 L8.0045,8.09841667 Z" id="Shape"></path>
                        </g>
                    </g>
                </g>
            </g>
        </g>
    </g>
</svg>
