<svg width="12" height="12" viewBox="0 0 12 12" fill="none" xmlns="http://www.w3.org/2000/svg">
<path d="M11.6871 0.144372C11.5254 0.0284791 11.3243 -0.0184543 11.1281 0.0138954C10.9318 0.046245 10.7565 0.155228 10.6406 0.316872L3.62306 10.1009L1.28056 7.75637C1.21093 7.68671 1.12826 7.63144 1.03726 7.59372C0.946271 7.55601 0.84874 7.53658 0.75024 7.53656C0.651741 7.53653 0.554201 7.55591 0.46319 7.59359C0.372179 7.63126 0.28948 7.68649 0.219814 7.75612C0.150147 7.82576 0.0948785 7.90843 0.0571629 7.99942C0.0194472 8.09042 2.32342e-05 8.18795 2.08312e-08 8.28644C-2.31925e-05 8.38494 0.0193548 8.48248 0.0570276 8.57349C0.0947003 8.66451 0.14993 8.74721 0.219564 8.81687L3.18706 11.7839C3.26497 11.8588 3.35793 11.9164 3.45978 11.9527C3.56163 11.989 3.67003 12.0032 3.77779 11.9944C3.88555 11.9856 3.99021 11.954 4.08483 11.9017C4.17944 11.8493 4.26184 11.7775 4.32656 11.6909L11.8596 1.19087C11.9755 1.02922 12.0224 0.828152 11.99 0.631897C11.9577 0.435643 11.8487 0.260276 11.6871 0.144372Z" fill="white"/>
</svg>
