<svg width="12" height="12" viewBox="0 0 12 12" fill="none" xmlns="http://www.w3.org/2000/svg">
<mask id="mask0" mask-type="alpha" maskUnits="userSpaceOnUse" x="0" y="0" width="12" height="12">
<rect width="12" height="12" fill="#C4C4C4"/>
</mask>
<g mask="url(#mask0)">
<path d="M10.8188 11.7263H1.27126C1.13881 11.7324 1.00922 11.6864 0.910342 11.598C0.811469 11.5097 0.751208 11.3861 0.742512 11.2538V9.8775C0.742512 9.61875 0.993762 9.58875 1.27126 9.405L6.04501 6.55875L10.8188 9.40875C11.13 9.60375 11.3475 9.6225 11.3475 9.88125V11.2575C11.3379 11.3891 11.2772 11.5118 11.1784 11.5994C11.0797 11.6869 10.9506 11.7325 10.8188 11.7263V11.7263Z" fill="url(#paint0_linear)"/>
<path d="M5.27995 6.40875H6.86995V8.76375H5.27995V6.40875Z" fill="url(#paint1_linear)"/>
<path d="M6.19505 0.191242C8.18255 0.191242 9.3563 3.04499 9.15755 6.75749C6.79505 6.92624 2.9963 6.89249 2.9963 6.89249C2.9963 6.89249 2.48255 0.191242 6.19505 0.191242Z" fill="url(#paint2_linear)"/>
<path d="M6.04508 7.15497C7.08062 7.15497 7.92008 5.69598 7.92008 3.89622C7.92008 2.09646 7.08062 0.63747 6.04508 0.63747C5.00955 0.63747 4.17008 2.09646 4.17008 3.89622C4.17008 5.69598 5.00955 7.15497 6.04508 7.15497Z" fill="#4B201C" fill-opacity="0.34"/>
<path d="M6.14258 7.15498C7.17811 7.15498 8.01758 5.69599 8.01758 3.89623C8.01758 2.09647 7.17811 0.637482 6.14258 0.637482C5.10704 0.637482 4.26758 2.09647 4.26758 3.89623C4.26758 5.69599 5.10704 7.15498 6.14258 7.15498Z" fill="url(#paint3_radial)"/>
<path d="M6.19873 0.191242C4.32373 0.191242 3.52498 1.93124 3.19873 3.63749L4.26373 3.97499C4.83136 3.48961 5.48701 3.11786 6.19498 2.87999C7.31998 2.50499 7.16623 1.68749 7.16623 1.68749C7.3958 1.83805 7.58693 2.04027 7.72433 2.27795C7.86172 2.51563 7.94157 2.78217 7.95748 3.05624C8.02123 3.60374 8.22748 3.22874 8.70748 2.73749C8.23498 1.17749 7.35748 0.191242 6.19873 0.191242Z" fill="url(#paint4_linear)"/>
<ellipse cx="6.02499" cy="4.49999" rx="2.375" ry="4" fill="url(#paint5_radial)"/>
<path d="M6.87375 11.34V7.39125L10.7213 9.4725C10.8075 9.525 10.89 9.56625 10.9613 9.6C11.1563 9.6975 11.1563 9.70875 11.1563 9.765V11.0775C11.145 11.1568 11.1037 11.2287 11.0409 11.2782C10.978 11.3278 10.8985 11.3513 10.8188 11.3438H6.87375V11.34ZM1.27125 11.34C1.19155 11.3475 1.11201 11.3241 1.04916 11.2745C0.986303 11.2249 0.944972 11.153 0.933754 11.0738V9.76125C0.933754 9.705 0.933754 9.68625 1.14 9.5925C1.22088 9.55406 1.29973 9.5115 1.37625 9.465L5.295 7.35375V11.34H1.27125V11.34Z" fill="#E1C3C2"/>
<path d="M6.87384 11.34V7.39126L10.7213 9.47251C10.8076 9.52501 10.8901 9.56626 10.9613 9.60001C11.1563 9.69751 11.1563 9.70876 11.1563 9.76501V11.0775C11.1451 11.1568 11.1038 11.2287 11.0409 11.2783C10.9781 11.3278 10.8985 11.3513 10.8188 11.3438H6.87384V11.34ZM1.27134 11.34C1.19164 11.3476 1.11209 11.3241 1.04924 11.2745C0.986387 11.2249 0.945056 11.153 0.933838 11.0738V9.76126C0.933838 9.70501 0.933838 9.68626 1.14009 9.59251C1.22096 9.55407 1.29981 9.51151 1.37634 9.46501L5.29509 7.35376V11.34H1.27134V11.34Z" fill="url(#paint6_linear)"/>
<path d="M4.99999 7.41582C5.14348 7.33298 5.19264 7.1495 5.1098 7.00601C5.02696 6.86252 4.84348 6.81336 4.69999 6.8962C4.55651 6.97905 4.50734 7.16252 4.59019 7.30601C4.67303 7.4495 4.85651 7.49866 4.99999 7.41582Z" fill="#DA1C5C"/>
<path d="M5.2961 7.93386C5.43959 7.85102 5.48875 7.66754 5.40591 7.52405C5.32307 7.38056 5.13959 7.3314 4.9961 7.41424C4.85261 7.49709 4.80345 7.68057 4.88629 7.82405C4.96914 7.96754 5.15261 8.0167 5.2961 7.93386Z" fill="#DA1C5C"/>
<path d="M7.17108 7.93386C7.31456 7.85102 7.36373 7.66754 7.28088 7.52405C7.19804 7.38056 7.01456 7.3314 6.87108 7.41424C6.72759 7.49709 6.67842 7.68057 6.76127 7.82405C6.84411 7.96754 7.02759 8.0167 7.17108 7.93386Z" fill="#DA1C5C"/>
<path d="M7.46707 7.41957C7.61056 7.33672 7.65972 7.15325 7.57688 7.00976C7.49404 6.86627 7.31056 6.81711 7.16707 6.89995C7.02358 6.98279 6.97442 7.16627 7.05726 7.30976C7.14011 7.45325 7.32358 7.50241 7.46707 7.41957Z" fill="#DA1C5C"/>
<path d="M5.27995 8.76375H6.86995V11.7263H5.27995V8.76375Z" fill="url(#paint7_linear)"/>
</g>
<defs>
<linearGradient id="paint0_linear" x1="6.04501" y1="11.7263" x2="6.04501" y2="6.55875" gradientUnits="userSpaceOnUse">
<stop stop-color="#942F37"/>
<stop offset="0.23" stop-color="#942A47"/>
<stop offset="0.23" stop-color="#932946"/>
<stop offset="0.35" stop-color="#B05063"/>
<stop offset="0.46" stop-color="#C87079"/>
<stop offset="0.58" stop-color="#DB898B"/>
<stop offset="0.71" stop-color="#E89A98"/>
<stop offset="0.84" stop-color="#EFA5A0"/>
<stop offset="1" stop-color="#F2A8A2"/>
</linearGradient>
<linearGradient id="paint1_linear" x1="5.27995" y1="7.58625" x2="6.8737" y2="7.58625" gradientUnits="userSpaceOnUse">
<stop stop-color="#A57C4B"/>
<stop offset="0.07" stop-color="#BE9461"/>
<stop offset="0.14" stop-color="#D2A773"/>
<stop offset="0.22" stop-color="#E0B480"/>
<stop offset="0.32" stop-color="#E9BC87"/>
<stop offset="0.49" stop-color="#EBBE89"/>
<stop offset="0.68" stop-color="#E9BC87"/>
<stop offset="0.78" stop-color="#E1B480"/>
<stop offset="0.86" stop-color="#D3A874"/>
<stop offset="0.93" stop-color="#C09663"/>
<stop offset="0.99" stop-color="#A87F4D"/>
<stop offset="1" stop-color="#A37A49"/>
</linearGradient>
<linearGradient id="paint2_linear" x1="6.0788" y1="0.191242" x2="6.0788" y2="6.89249" gradientUnits="userSpaceOnUse">
<stop offset="0.56" stop-color="#6E3B35"/>
<stop offset="0.72" stop-color="#6A3430"/>
<stop offset="0.95" stop-color="#5D2221"/>
<stop offset="1" stop-color="#5A1D1D"/>
</linearGradient>
<radialGradient id="paint3_radial" cx="0" cy="0" r="1" gradientUnits="userSpaceOnUse" gradientTransform="translate(6.14258 3.91839) scale(1.87125 3.23726)">
<stop offset="0.49" stop-color="#EBBE89"/>
<stop offset="0.66" stop-color="#E9BC87"/>
<stop offset="0.75" stop-color="#E1B480"/>
<stop offset="0.82" stop-color="#D3A874"/>
<stop offset="0.88" stop-color="#C09663"/>
<stop offset="0.94" stop-color="#A87F4D"/>
<stop offset="0.95" stop-color="#A37A49"/>
<stop offset="0.99" stop-color="#A37A49"/>
</radialGradient>
<linearGradient id="paint4_linear" x1="5.96623" y1="0.191242" x2="5.96623" y2="3.97499" gradientUnits="userSpaceOnUse">
<stop stop-color="#CF8F5E"/>
<stop offset="0.04" stop-color="#C6875A"/>
<stop offset="0.2" stop-color="#A66C4D"/>
<stop offset="0.37" stop-color="#8D5642"/>
<stop offset="0.55" stop-color="#7C473B"/>
<stop offset="0.73" stop-color="#713E36"/>
<stop offset="0.95" stop-color="#6E3B35"/>
</linearGradient>
<radialGradient id="paint5_radial" cx="0" cy="0" r="1" gradientUnits="userSpaceOnUse" gradientTransform="translate(5.50008 1.49999) rotate(-26.5651) scale(2.23607 1.32767)">
<stop stop-color="#D2AB8D"/>
<stop offset="0.703125" stop-color="#A66C4E" stop-opacity="0"/>
</radialGradient>
<linearGradient id="paint6_linear" x1="6.04509" y1="7.35376" x2="6.04509" y2="11.3451" gradientUnits="userSpaceOnUse">
<stop stop-color="#C02436"/>
<stop offset="1" stop-color="#C86A74"/>
</linearGradient>
<linearGradient id="paint7_linear" x1="6.0787" y1="11.7263" x2="6.0787" y2="8.76375" gradientUnits="userSpaceOnUse">
<stop stop-color="#9D9FA2"/>
<stop offset="0.49" stop-color="white"/>
<stop offset="0.68" stop-color="#FDFDFD"/>
<stop offset="0.77" stop-color="#F5F5F6"/>
<stop offset="0.85" stop-color="#E7E8E9"/>
<stop offset="0.92" stop-color="#D4D5D7"/>
<stop offset="0.97" stop-color="#BCBEC0"/>
<stop offset="1" stop-color="#AEB0B3"/>
</linearGradient>
</defs>
</svg>
