<svg width="16" height="14" viewBox="0 0 16 14" fill="none" xmlns="http://www.w3.org/2000/svg">
<path fill-rule="evenodd" clip-rule="evenodd" d="M0 6.85577C0 3.87606 2.91579 1.45264 6.5 1.45264C10.0842 1.45264 13 3.87551 13 6.85468C13 9.83385 10.0842 12.2578 6.5 12.2578C5.8099 12.2593 5.12271 12.1682 4.45683 11.9869L1.21713 13.4949C1.00815 13.5923 0.760467 13.5467 0.599855 13.3813C0.439243 13.2159 0.400897 12.967 0.504292 12.761L1.65587 10.4622C0.618025 9.54884 0.0162375 8.23818 0 6.85577ZM4.57058 10.8917C5.19613 11.0813 5.84636 11.177 6.5 11.1756C9.48675 11.1756 11.9167 9.23802 11.9167 6.85577C11.9167 4.47352 9.48675 2.53597 6.5 2.53597C3.51325 2.53597 1.08333 4.47243 1.08333 6.85577C1.11245 8.06205 1.69723 9.18722 2.66771 9.90427C2.86699 10.0639 2.92771 10.3411 2.81342 10.5694L2.34271 11.5092C2.31676 11.5607 2.3263 11.623 2.36648 11.6644C2.40665 11.7058 2.46864 11.7172 2.52092 11.6928L4.18383 10.9188C4.30499 10.8624 4.44274 10.8527 4.57058 10.8917Z" fill="#B3B3B3"/>
</svg>
