<svg width="16" height="14" viewBox="0 0 16 14" fill="none" xmlns="http://www.w3.org/2000/svg">
<path fill-rule="evenodd" clip-rule="evenodd" d="M9.14718 1.92101C8.33819 1.62006 7.44219 1.45264 6.5 1.45264C2.91579 1.45264 0 3.87605 0 6.85576C0.0162375 8.23817 0.618025 9.54884 1.65587 10.4622L0.504292 12.761C0.400897 12.9671 0.439243 13.216 0.599855 13.3813C0.760467 13.5467 1.00815 13.5923 1.21713 13.495L4.45683 11.987C5.12271 12.1682 5.8099 12.2593 6.5 12.2578C10.0258 12.2578 12.9048 9.91221 12.9977 6.99988C12.6231 6.99967 12.2605 6.94795 11.9167 6.85144C11.9167 6.85288 11.9167 6.85432 11.9167 6.85576C11.9167 9.23801 9.48675 11.1756 6.5 11.1756C5.84636 11.177 5.19613 11.0813 4.57058 10.8917C4.44274 10.8527 4.30499 10.8624 4.18383 10.9188L2.52092 11.6928C2.46864 11.7172 2.40665 11.7058 2.36648 11.6644C2.3263 11.623 2.31676 11.5607 2.34271 11.5092L2.81342 10.5694C2.92771 10.3411 2.86699 10.0639 2.66771 9.90426C1.69723 9.18722 1.11245 8.06205 1.08333 6.85576C1.08333 4.47243 3.51325 2.53597 6.5 2.53597C7.40121 2.53597 8.25171 2.71238 9.00007 3.02417C9.00002 3.01608 9 3.00798 9 2.99988C9 2.62606 9.05128 2.26422 9.14718 1.92101Z" fill="white"/>
<circle cx="13" cy="3" r="3" fill="#F47321"/>
</svg>
