<svg width="12" height="12" viewBox="0 0 12 12" fill="none" xmlns="http://www.w3.org/2000/svg">
<path d="M11.4831 7.88955H4.57724C4.48112 7.89503 4.38673 7.8622 4.31477 7.79823C4.2428 7.73426 4.19913 7.64438 4.19331 7.54827V6.26095C4.19331 6.07274 4.37398 6.05267 4.57724 5.91967L8.03018 4.15054L11.4831 5.92469C11.709 6.06521 11.867 6.07776 11.867 6.26597V7.54827C11.8612 7.64438 11.8176 7.73426 11.7456 7.79823C11.6736 7.8622 11.5792 7.89503 11.4831 7.88955V7.88955Z" fill="url(#paint0_linear)"/>
<path d="M8.62991 7.61101V4.75531L11.4128 5.97237C11.4756 6.01001 11.5333 6.04012 11.586 6.06522C11.7265 6.13548 11.7265 6.14301 11.7265 6.18316V7.42029C11.7184 7.47898 11.6875 7.53212 11.6406 7.56826C11.5936 7.60441 11.5344 7.62066 11.4756 7.61352H8.62991V7.61101ZM4.57723 7.61101C4.51842 7.61815 4.45916 7.6019 4.41222 7.56575C4.36528 7.52961 4.33442 7.47647 4.32629 7.41778V6.18065C4.32629 6.1405 4.33884 6.12544 4.47435 6.0602C4.53277 6.03218 4.58973 6.00119 4.64499 5.96735L7.4781 4.7252V7.61101H4.57723V7.61101Z" fill="url(#paint1_radial)"/>
<path d="M8.62986 7.611V4.75531L11.4128 5.97237C11.4755 6.01001 11.5332 6.04012 11.5859 6.06521C11.7265 6.13548 11.7265 6.14301 11.7265 6.18316V7.42029C11.7183 7.47897 11.6875 7.53212 11.6405 7.56826C11.5936 7.6044 11.5343 7.62066 11.4755 7.61351H8.62986V7.611ZM4.57718 7.611C4.51837 7.61815 4.45911 7.60189 4.41216 7.56575C4.36522 7.52961 4.33437 7.47646 4.32624 7.41778V6.18065C4.32624 6.1405 4.33879 6.12544 4.47429 6.0602C4.53272 6.03218 4.58967 6.00119 4.64493 5.96735L7.47804 4.7252V7.611H4.57718V7.611Z" fill="url(#paint2_linear)"/>
<path d="M7.45552 5.74653H8.60734V7.88955H7.45552V5.74653Z" fill="url(#paint3_linear)"/>
<path d="M9.02387 5.73147L8.8733 5.92469H7.18448L7.03642 5.73147V3.67627H9.02387V5.73147Z" fill="url(#paint4_linear)"/>
<path d="M9.78668 1.99497C9.75109 1.9959 9.71632 2.00582 9.68561 2.02381C9.65489 2.0418 9.62923 2.06727 9.61102 2.09786V1.54077C9.61102 1.2547 9.44289 0.115435 8.28104 0.115435H7.70639C6.70263 0.115435 6.41907 1.2547 6.41907 1.54077V2.06273C6.40058 2.04226 6.37818 2.02571 6.35317 2.01407C6.32817 2.00243 6.30108 1.99594 6.27352 1.99497C6.21231 2.00237 6.15597 2.03204 6.11524 2.07832C6.07451 2.12461 6.05225 2.18426 6.05269 2.24591L6.11543 2.83562C6.11498 2.89727 6.13725 2.95693 6.17798 3.00321C6.21871 3.0495 6.27505 3.07917 6.33626 3.08656C6.39033 3.08526 6.44171 3.06273 6.47929 3.02383V3.62106C6.47929 3.90714 7.45796 4.8055 7.71141 4.8055H8.28104C8.53198 4.8055 9.51817 3.89459 9.51817 3.60852V3.04892C9.53638 3.07951 9.56204 3.10498 9.59276 3.12298C9.62347 3.14097 9.65825 3.15088 9.69383 3.15181C9.75504 3.14441 9.81138 3.11474 9.85211 3.06846C9.89284 3.02217 9.9151 2.96252 9.91466 2.90087L10.0075 2.24591C10.008 2.18426 9.98568 2.12461 9.94496 2.07832C9.90423 2.03204 9.84788 2.00237 9.78668 1.99497V1.99497Z" fill="url(#paint5_radial)"/>
<path d="M9.78675 1.99498C9.75116 1.9959 9.71639 2.00582 9.68568 2.02381C9.65496 2.0418 9.6293 2.06728 9.61109 2.09786V1.54077C9.61109 1.2547 9.44296 0.115437 8.28111 0.115437H7.70646C6.7027 0.115437 6.41914 1.2547 6.41914 1.54077V2.06273C6.40066 2.04226 6.37825 2.02571 6.35324 2.01407C6.32824 2.00243 6.30115 1.99594 6.27359 1.99498C6.21239 2.00237 6.15604 2.03204 6.11531 2.07833C6.07459 2.12461 6.05232 2.18427 6.05276 2.24592L6.1155 2.83562C6.11505 2.89727 6.13732 2.95693 6.17805 3.00321C6.21878 3.0495 6.27512 3.07917 6.33633 3.08656C6.3904 3.08526 6.44178 3.06273 6.47936 3.02383V3.62107C6.47936 3.90714 7.45803 4.8055 7.71148 4.8055H8.28111C8.53205 4.8055 9.51824 3.89459 9.51824 3.60852V3.04892C9.53645 3.07951 9.56211 3.10499 9.59283 3.12298C9.62355 3.14097 9.65832 3.15089 9.6939 3.15181C9.75511 3.14441 9.81145 3.11474 9.85218 3.06846C9.89291 3.02218 9.91517 2.96252 9.91473 2.90087L10.0076 2.24592C10.008 2.18427 9.98576 2.12461 9.94503 2.07833C9.9043 2.03204 9.84796 2.00237 9.78675 1.99498V1.99498Z" fill="url(#paint6_radial)"/>
<path d="M9.61103 1.54077C9.61103 1.2547 9.53574 0.115435 8.29359 0.115435H7.67377C6.59222 0.115435 6.41907 1.2547 6.41907 1.54077C6.41907 1.54077 6.31368 2.79547 6.59222 3.04641L6.69259 1.94228C6.69259 1.65621 6.94353 1.18946 7.39774 1.31995C7.81764 1.41981 8.25511 1.41981 8.67502 1.31995C9.00626 1.22459 9.26473 1.64366 9.26473 1.92973L9.40024 3.05394C9.64114 2.82559 9.61103 1.54077 9.61103 1.54077Z" fill="#4C3D3D"/>
<g style="mix-blend-mode:screen" opacity="0.5">
<rect x="7.08151" y="0.167293" width="1.84023" height="0.970301" rx="0.48515" fill="url(#paint7_radial)"/>
</g>
<mask id="mask0" mask-type="alpha" maskUnits="userSpaceOnUse" x="0" y="3" width="9" height="9">
<rect y="3.96992" width="8.03008" height="8.03008" fill="#C4C4C4"/>
</mask>
<g mask="url(#mask0)">
<path d="M7.23962 11.8168H0.850694C0.762059 11.821 0.67534 11.7901 0.609176 11.731C0.543013 11.6719 0.502688 11.5892 0.496869 11.5006V10.5797C0.496869 10.4065 0.664999 10.3865 0.850694 10.2635L4.04516 8.35887L7.23962 10.266C7.4479 10.3965 7.59345 10.409 7.59345 10.5822V11.5031C7.587 11.5912 7.54641 11.6733 7.48031 11.7319C7.41422 11.7905 7.32785 11.821 7.23962 11.8168V11.8168Z" fill="url(#paint8_linear)"/>
<path d="M3.5332 8.25849H4.59718V9.83439H3.5332V8.25849Z" fill="url(#paint9_linear)"/>
<path d="M4.14556 4.0979C5.47554 4.0979 6.26098 6.00755 6.12799 8.49186C4.54706 8.60478 2.00504 8.58219 2.00504 8.58219C2.00504 8.58219 1.66126 4.0979 4.14556 4.0979Z" fill="url(#paint10_linear)"/>
<path d="M4.04521 8.75784C4.73816 8.75784 5.29991 7.78152 5.29991 6.57717C5.29991 5.37282 4.73816 4.3965 4.04521 4.3965C3.35226 4.3965 2.79051 5.37282 2.79051 6.57717C2.79051 7.78152 3.35226 8.75784 4.04521 8.75784Z" fill="#4B201C" fill-opacity="0.34"/>
<path d="M4.11045 8.75785C4.8034 8.75785 5.36515 7.78153 5.36515 6.57718C5.36515 5.37283 4.8034 4.39651 4.11045 4.39651C3.4175 4.39651 2.85575 5.37283 2.85575 6.57718C2.85575 7.78153 3.4175 8.75785 4.11045 8.75785Z" fill="url(#paint11_radial)"/>
<path d="M4.14802 4.0979C2.89332 4.0979 2.35882 5.26226 2.1405 6.40404L2.85317 6.62988C3.23302 6.30508 3.67176 6.05631 4.14551 5.89714C4.89833 5.6462 4.79545 5.09915 4.79545 5.09915C4.94907 5.1999 5.07697 5.33522 5.16891 5.49426C5.26085 5.65331 5.31429 5.83168 5.32493 6.01508C5.36759 6.38145 5.50561 6.13051 5.82681 5.80178C5.51063 4.75787 4.92343 4.0979 4.14802 4.0979Z" fill="url(#paint12_linear)"/>
<ellipse cx="4.03176" cy="6.98119" rx="1.58929" ry="2.67669" fill="url(#paint13_radial)"/>
<path d="M4.59973 11.5583V8.91595L7.17437 10.3087C7.23209 10.3438 7.2873 10.3714 7.33497 10.394C7.46546 10.4592 7.46546 10.4668 7.46546 10.5044V11.3827C7.45796 11.4357 7.4303 11.4838 7.38824 11.517C7.34618 11.5502 7.29295 11.5659 7.23962 11.5609H4.59973V11.5583ZM0.850689 11.5583C0.797355 11.5634 0.744127 11.5477 0.702067 11.5145C0.660007 11.4813 0.63235 11.4332 0.624843 11.3802V10.5019C0.624843 10.4642 0.624843 10.4517 0.76286 10.389C0.816978 10.3632 0.869744 10.3348 0.920952 10.3036L3.54327 8.89086V11.5583H0.850689V11.5583Z" fill="#E1C3C2"/>
<path d="M4.59979 11.5584V8.91596L7.17443 10.3087C7.23214 10.3438 7.28735 10.3714 7.33503 10.394C7.46552 10.4592 7.46552 10.4668 7.46552 10.5044V11.3827C7.45801 11.4357 7.43035 11.4838 7.38829 11.517C7.34624 11.5502 7.29301 11.5659 7.23967 11.5609H4.59979V11.5584ZM0.850745 11.5584C0.797411 11.5634 0.744183 11.5477 0.702123 11.5145C0.660064 11.4813 0.632406 11.4332 0.624899 11.3802V10.5019C0.624899 10.4643 0.624899 10.4517 0.762916 10.389C0.817034 10.3632 0.869801 10.3348 0.921008 10.3037L3.54333 8.89086V11.5584H0.850745V11.5584Z" fill="url(#paint14_linear)"/>
<path d="M3.34586 8.93239C3.44188 8.87695 3.47478 8.75418 3.41934 8.65816C3.3639 8.56214 3.24113 8.52924 3.14511 8.58468C3.04909 8.64011 3.01619 8.76289 3.07163 8.85891C3.12706 8.95493 3.24984 8.98783 3.34586 8.93239Z" fill="#DA1C5C"/>
<path d="M3.54401 9.27905C3.64003 9.22361 3.67292 9.10084 3.61749 9.00482C3.56205 8.9088 3.43927 8.8759 3.34326 8.93134C3.24724 8.98677 3.21434 9.10955 3.26978 9.20557C3.32521 9.30159 3.44799 9.33449 3.54401 9.27905Z" fill="#DA1C5C"/>
<path d="M4.79869 9.27905C4.89471 9.22361 4.92761 9.10084 4.87217 9.00482C4.81673 8.9088 4.69396 8.8759 4.59794 8.93134C4.50192 8.98677 4.46902 9.10955 4.52446 9.20557C4.57989 9.30159 4.70267 9.33449 4.79869 9.27905Z" fill="#DA1C5C"/>
<path d="M4.99676 8.9349C5.09278 8.87946 5.12568 8.75668 5.07024 8.66067C5.01481 8.56465 4.89203 8.53175 4.79601 8.58719C4.69999 8.64262 4.6671 8.7654 4.72253 8.86142C4.77797 8.95744 4.90075 8.99033 4.99676 8.9349Z" fill="#DA1C5C"/>
<path d="M3.5332 9.83439H4.59718V11.8168H3.5332V9.83439Z" fill="url(#paint15_linear)"/>
</g>
<defs>
<linearGradient id="paint0_linear" x1="8.03018" y1="7.88955" x2="8.03018" y2="4.15054" gradientUnits="userSpaceOnUse">
<stop stop-color="#00619E"/>
<stop offset="1" stop-color="#00B7EC"/>
</linearGradient>
<radialGradient id="paint1_radial" cx="0" cy="0" r="1" gradientUnits="userSpaceOnUse" gradientTransform="translate(8.03017 6.1681) scale(2.80802)">
<stop stop-color="#7FC8E7"/>
<stop offset="1" stop-color="#6DCFF6"/>
</radialGradient>
<linearGradient id="paint2_linear" x1="7.98496" y1="4.68421" x2="7.98496" y2="7.69549" gradientUnits="userSpaceOnUse">
<stop offset="0.0277778" stop-color="#044063"/>
<stop offset="0.486188" stop-color="#007AC2"/>
<stop offset="1" stop-color="#57BAE5"/>
</linearGradient>
<linearGradient id="paint3_linear" x1="8.03018" y1="7.88955" x2="8.03018" y2="5.74653" gradientUnits="userSpaceOnUse">
<stop stop-color="#9D9FA2"/>
<stop offset="0.49" stop-color="white"/>
<stop offset="0.68" stop-color="#FDFDFD"/>
<stop offset="0.77" stop-color="#F5F5F6"/>
<stop offset="0.85" stop-color="#E7E8E9"/>
<stop offset="0.92" stop-color="#D4D5D7"/>
<stop offset="0.97" stop-color="#BCBEC0"/>
<stop offset="1" stop-color="#AEB0B3"/>
</linearGradient>
<linearGradient id="paint4_linear" x1="7.03642" y1="4.80048" x2="9.02387" y2="4.80048" gradientUnits="userSpaceOnUse">
<stop stop-color="#A57C4B"/>
<stop offset="0.07" stop-color="#BE9461"/>
<stop offset="0.14" stop-color="#D2A773"/>
<stop offset="0.22" stop-color="#E0B480"/>
<stop offset="0.32" stop-color="#E9BC87"/>
<stop offset="0.49" stop-color="#EBBE89"/>
<stop offset="0.68" stop-color="#E9BC87"/>
<stop offset="0.78" stop-color="#E1B480"/>
<stop offset="0.86" stop-color="#D3A874"/>
<stop offset="0.93" stop-color="#C09663"/>
<stop offset="0.99" stop-color="#A87F4D"/>
<stop offset="1" stop-color="#A37A49"/>
</linearGradient>
<radialGradient id="paint5_radial" cx="0" cy="0" r="1" gradientUnits="userSpaceOnUse" gradientTransform="translate(8.00809 2.45836) scale(1.77776 2.6167)">
<stop offset="0.71" stop-color="#B49167"/>
<stop offset="0.82" stop-color="#B08C60"/>
<stop offset="0.96" stop-color="#A67E4E"/>
<stop offset="0.99" stop-color="#A37A49"/>
</radialGradient>
<radialGradient id="paint6_radial" cx="0" cy="0" r="1" gradientUnits="userSpaceOnUse" gradientTransform="translate(8.00816 2.45836) scale(1.77776 2.6167)">
<stop stop-color="#EDBE89"/>
<stop offset="0.569215" stop-color="#EDBE89"/>
<stop offset="0.95151" stop-color="#A67E4E"/>
<stop offset="1" stop-color="#A37A49"/>
</radialGradient>
<radialGradient id="paint7_radial" cx="0" cy="0" r="1" gradientUnits="userSpaceOnUse" gradientTransform="translate(7.98496 0.669173) rotate(90) scale(0.334586 0.95148)">
<stop stop-color="#C4C4C4"/>
<stop offset="1" stop-color="#C4C4C4" stop-opacity="0"/>
</radialGradient>
<linearGradient id="paint8_linear" x1="4.04516" y1="11.8168" x2="4.04516" y2="8.35887" gradientUnits="userSpaceOnUse">
<stop stop-color="#942F37"/>
<stop offset="0.23" stop-color="#942A47"/>
<stop offset="0.23" stop-color="#932946"/>
<stop offset="0.35" stop-color="#B05063"/>
<stop offset="0.46" stop-color="#C87079"/>
<stop offset="0.58" stop-color="#DB898B"/>
<stop offset="0.71" stop-color="#E89A98"/>
<stop offset="0.84" stop-color="#EFA5A0"/>
<stop offset="1" stop-color="#F2A8A2"/>
</linearGradient>
<linearGradient id="paint9_linear" x1="3.5332" y1="9.04644" x2="4.59969" y2="9.04644" gradientUnits="userSpaceOnUse">
<stop stop-color="#A57C4B"/>
<stop offset="0.07" stop-color="#BE9461"/>
<stop offset="0.14" stop-color="#D2A773"/>
<stop offset="0.22" stop-color="#E0B480"/>
<stop offset="0.32" stop-color="#E9BC87"/>
<stop offset="0.49" stop-color="#EBBE89"/>
<stop offset="0.68" stop-color="#E9BC87"/>
<stop offset="0.78" stop-color="#E1B480"/>
<stop offset="0.86" stop-color="#D3A874"/>
<stop offset="0.93" stop-color="#C09663"/>
<stop offset="0.99" stop-color="#A87F4D"/>
<stop offset="1" stop-color="#A37A49"/>
</linearGradient>
<linearGradient id="paint10_linear" x1="4.06777" y1="4.0979" x2="4.06777" y2="8.58219" gradientUnits="userSpaceOnUse">
<stop offset="0.56" stop-color="#6E3B35"/>
<stop offset="0.72" stop-color="#6A3430"/>
<stop offset="0.95" stop-color="#5D2221"/>
<stop offset="1" stop-color="#5A1D1D"/>
</linearGradient>
<radialGradient id="paint11_radial" cx="0" cy="0" r="1" gradientUnits="userSpaceOnUse" gradientTransform="translate(4.11045 6.59201) scale(1.25219 2.16629)">
<stop offset="0.49" stop-color="#EBBE89"/>
<stop offset="0.66" stop-color="#E9BC87"/>
<stop offset="0.75" stop-color="#E1B480"/>
<stop offset="0.82" stop-color="#D3A874"/>
<stop offset="0.88" stop-color="#C09663"/>
<stop offset="0.94" stop-color="#A87F4D"/>
<stop offset="0.95" stop-color="#A37A49"/>
<stop offset="0.99" stop-color="#A37A49"/>
</radialGradient>
<linearGradient id="paint12_linear" x1="3.99244" y1="4.0979" x2="3.99244" y2="6.62988" gradientUnits="userSpaceOnUse">
<stop stop-color="#CF8F5E"/>
<stop offset="0.04" stop-color="#C6875A"/>
<stop offset="0.2" stop-color="#A66C4D"/>
<stop offset="0.37" stop-color="#8D5642"/>
<stop offset="0.55" stop-color="#7C473B"/>
<stop offset="0.73" stop-color="#713E36"/>
<stop offset="0.95" stop-color="#6E3B35"/>
</linearGradient>
<radialGradient id="paint13_radial" cx="0" cy="0" r="1" gradientUnits="userSpaceOnUse" gradientTransform="translate(3.68051 4.97368) rotate(-26.5651) scale(1.49632 0.888438)">
<stop stop-color="#D2AB8D"/>
<stop offset="0.703125" stop-color="#A66C4E" stop-opacity="0"/>
</radialGradient>
<linearGradient id="paint14_linear" x1="4.04521" y1="8.89086" x2="4.04521" y2="11.5618" gradientUnits="userSpaceOnUse">
<stop stop-color="#C02436"/>
<stop offset="1" stop-color="#C86A74"/>
</linearGradient>
<linearGradient id="paint15_linear" x1="4.0677" y1="11.8168" x2="4.0677" y2="9.83439" gradientUnits="userSpaceOnUse">
<stop stop-color="#9D9FA2"/>
<stop offset="0.49" stop-color="white"/>
<stop offset="0.68" stop-color="#FDFDFD"/>
<stop offset="0.77" stop-color="#F5F5F6"/>
<stop offset="0.85" stop-color="#E7E8E9"/>
<stop offset="0.92" stop-color="#D4D5D7"/>
<stop offset="0.97" stop-color="#BCBEC0"/>
<stop offset="1" stop-color="#AEB0B3"/>
</linearGradient>
</defs>
</svg>
