<svg width="12" height="12" viewBox="0 0 12 12" fill="none" xmlns="http://www.w3.org/2000/svg">
<path d="M11.2276 11.79H0.907567C0.763914 11.7982 0.622867 11.7491 0.515325 11.6535C0.407782 11.5579 0.342513 11.4236 0.333817 11.28V9.35625C0.333817 9.075 0.603817 9.045 0.907567 8.84625L6.06757 6.2025L11.2276 8.85375C11.5651 9.06375 11.8013 9.0825 11.8013 9.36375V11.28C11.7926 11.4236 11.7274 11.5579 11.6198 11.6535C11.5123 11.7491 11.3712 11.7982 11.2276 11.79V11.79Z" fill="url(#paint0_linear)"/>
<path d="M6.9638 11.3738V7.10625L11.1226 8.925C11.2163 8.98125 11.3026 9.02625 11.3813 9.06375C11.5913 9.16875 11.5913 9.18 11.5913 9.24V11.0888C11.5792 11.1764 11.533 11.2559 11.4629 11.3099C11.3927 11.3639 11.3042 11.3882 11.2163 11.3775H6.9638V11.3738ZM0.907551 11.3738C0.819664 11.3844 0.731102 11.3601 0.660955 11.3061C0.590808 11.2521 0.544693 11.1727 0.532551 11.085V9.23625C0.532551 9.17625 0.551301 9.15375 0.753801 9.05625C0.841112 9.01438 0.926223 8.96807 1.0088 8.9175L5.24255 7.06125V11.3738H0.907551V11.3738Z" fill="url(#paint1_radial)"/>
<path d="M6.96372 11.3737V7.10625L11.1225 8.925C11.2162 8.98125 11.3025 9.02625 11.3812 9.06375C11.5912 9.16875 11.5912 9.18 11.5912 9.24V11.0887C11.5791 11.1764 11.533 11.2559 11.4628 11.3099C11.3927 11.3639 11.3041 11.3882 11.2162 11.3775H6.96372V11.3737ZM0.907471 11.3737C0.819584 11.3844 0.731022 11.3601 0.660875 11.3061C0.590728 11.2521 0.544613 11.1727 0.532471 11.085V9.23625C0.532471 9.17625 0.551221 9.15375 0.753721 9.05625C0.841032 9.01438 0.926143 8.96807 1.00872 8.9175L5.24247 7.06125V11.3737H0.907471V11.3737Z" fill="url(#paint2_linear)"/>
<path d="M5.20882 8.58751H6.93007V11.79H5.20882V8.58751Z" fill="url(#paint3_linear)"/>
<path d="M7.55252 8.56501L7.32752 8.85376H4.80377L4.58252 8.56501V5.49376H7.55252V8.56501Z" fill="url(#paint4_linear)"/>
<path d="M8.69245 2.98125C8.63927 2.98263 8.58731 2.99746 8.54141 3.02434C8.49551 3.05123 8.45716 3.0893 8.42995 3.135V2.3025C8.42995 1.875 8.1787 0.172504 6.44245 0.172504H5.5837C4.0837 0.172504 3.65995 1.875 3.65995 2.3025V3.0825C3.63233 3.05191 3.59885 3.02719 3.56148 3.00979C3.52412 2.9924 3.48364 2.98269 3.44245 2.98125C3.35099 2.99231 3.26679 3.03665 3.20592 3.10581C3.14506 3.17497 3.11179 3.26413 3.11245 3.35625L3.2062 4.2375C3.20554 4.32963 3.23881 4.41878 3.29967 4.48795C3.36054 4.55711 3.44474 4.60145 3.5362 4.6125C3.617 4.61056 3.69379 4.57688 3.74995 4.51875V5.41125C3.74995 5.83875 5.21245 7.18125 5.5912 7.18125H6.44245C6.81745 7.18125 8.2912 5.82 8.2912 5.3925V4.55625C8.31841 4.60196 8.35676 4.64003 8.40266 4.66692C8.44856 4.6938 8.50052 4.70863 8.5537 4.71C8.64517 4.69895 8.72936 4.65461 8.79023 4.58545C8.85109 4.51628 8.88437 4.42713 8.8837 4.335L9.02245 3.35625C9.02312 3.26413 8.98984 3.17497 8.92898 3.10581C8.86811 3.03665 8.78392 2.99231 8.69245 2.98125V2.98125Z" fill="url(#paint5_radial)"/>
<path d="M8.69256 2.98126C8.63938 2.98263 8.58742 2.99746 8.54152 3.02434C8.49562 3.05123 8.45727 3.0893 8.43006 3.13501V2.30251C8.43006 1.87501 8.17881 0.172506 6.44256 0.172506H5.58381C4.08381 0.172506 3.66006 1.87501 3.66006 2.30251V3.08251C3.63244 3.05192 3.59895 3.02719 3.56159 3.00979C3.52423 2.9924 3.48375 2.9827 3.44256 2.98126C3.35109 2.99231 3.2669 3.03665 3.20603 3.10581C3.14517 3.17498 3.11189 3.26413 3.11256 3.35626L3.20631 4.23751C3.20564 4.32964 3.23892 4.41879 3.29978 4.48795C3.36065 4.55711 3.44484 4.60145 3.53631 4.61251C3.61711 4.61056 3.6939 4.57688 3.75006 4.51876V5.41126C3.75006 5.83876 5.21256 7.18126 5.59131 7.18126H6.44256C6.81756 7.18126 8.29131 5.82001 8.29131 5.39251V4.55626C8.31852 4.60196 8.35687 4.64004 8.40277 4.66692C8.44867 4.69381 8.50063 4.70863 8.55381 4.71001C8.64527 4.69895 8.72947 4.65461 8.79034 4.58545C8.8512 4.51629 8.88447 4.42714 8.88381 4.33501L9.02256 3.35626C9.02322 3.26413 8.98995 3.17498 8.92909 3.10581C8.86822 3.03665 8.78402 2.99231 8.69256 2.98126V2.98126Z" fill="url(#paint6_radial)"/>
<path d="M8.42996 2.3025C8.42996 1.875 8.31746 0.172504 6.46121 0.172504H5.53496C3.91871 0.172504 3.65996 1.875 3.65996 2.3025C3.65996 2.3025 3.50246 4.1775 3.91871 4.5525L4.06871 2.9025C4.06871 2.475 4.44371 1.7775 5.12246 1.9725C5.74996 2.12173 6.40371 2.12173 7.03121 1.9725C7.52621 1.83 7.91246 2.45625 7.91246 2.88375L8.11496 4.56375C8.47496 4.2225 8.42996 2.3025 8.42996 2.3025Z" fill="#4C3D3D"/>
<g style="mix-blend-mode:screen" opacity="0.5">
<rect x="4.6499" y="0.25" width="2.75" height="1.45" rx="0.725" fill="url(#paint7_radial)"/>
</g>
<defs>
<linearGradient id="paint0_linear" x1="6.06757" y1="11.79" x2="6.06757" y2="6.2025" gradientUnits="userSpaceOnUse">
<stop stop-color="#00619E"/>
<stop offset="1" stop-color="#00B7EC"/>
</linearGradient>
<radialGradient id="paint1_radial" cx="0" cy="0" r="1" gradientUnits="userSpaceOnUse" gradientTransform="translate(6.06755 9.2175) scale(4.19625)">
<stop stop-color="#7FC8E7"/>
<stop offset="1" stop-color="#6DCFF6"/>
</radialGradient>
<linearGradient id="paint2_linear" x1="6" y1="7" x2="6" y2="11.5" gradientUnits="userSpaceOnUse">
<stop offset="0.0277778" stop-color="#044063"/>
<stop offset="0.486188" stop-color="#007AC2"/>
<stop offset="1" stop-color="#57BAE5"/>
</linearGradient>
<linearGradient id="paint3_linear" x1="6.06757" y1="11.79" x2="6.06757" y2="8.58751" gradientUnits="userSpaceOnUse">
<stop stop-color="#9D9FA2"/>
<stop offset="0.49" stop-color="white"/>
<stop offset="0.68" stop-color="#FDFDFD"/>
<stop offset="0.77" stop-color="#F5F5F6"/>
<stop offset="0.85" stop-color="#E7E8E9"/>
<stop offset="0.92" stop-color="#D4D5D7"/>
<stop offset="0.97" stop-color="#BCBEC0"/>
<stop offset="1" stop-color="#AEB0B3"/>
</linearGradient>
<linearGradient id="paint4_linear" x1="4.58252" y1="7.17376" x2="7.55252" y2="7.17376" gradientUnits="userSpaceOnUse">
<stop stop-color="#A57C4B"/>
<stop offset="0.07" stop-color="#BE9461"/>
<stop offset="0.14" stop-color="#D2A773"/>
<stop offset="0.22" stop-color="#E0B480"/>
<stop offset="0.32" stop-color="#E9BC87"/>
<stop offset="0.49" stop-color="#EBBE89"/>
<stop offset="0.68" stop-color="#E9BC87"/>
<stop offset="0.78" stop-color="#E1B480"/>
<stop offset="0.86" stop-color="#D3A874"/>
<stop offset="0.93" stop-color="#C09663"/>
<stop offset="0.99" stop-color="#A87F4D"/>
<stop offset="1" stop-color="#A37A49"/>
</linearGradient>
<radialGradient id="paint5_radial" cx="0" cy="0" r="1" gradientUnits="userSpaceOnUse" gradientTransform="translate(6.03456 3.67373) scale(2.65665 3.91035)">
<stop offset="0.71" stop-color="#B49167"/>
<stop offset="0.82" stop-color="#B08C60"/>
<stop offset="0.96" stop-color="#A67E4E"/>
<stop offset="0.99" stop-color="#A37A49"/>
</radialGradient>
<radialGradient id="paint6_radial" cx="0" cy="0" r="1" gradientUnits="userSpaceOnUse" gradientTransform="translate(6.03467 3.67373) scale(2.65665 3.91035)">
<stop stop-color="#EDBE89"/>
<stop offset="0.569215" stop-color="#EDBE89"/>
<stop offset="0.95151" stop-color="#A67E4E"/>
<stop offset="1" stop-color="#A37A49"/>
</radialGradient>
<radialGradient id="paint7_radial" cx="0" cy="0" r="1" gradientUnits="userSpaceOnUse" gradientTransform="translate(6 1) rotate(90) scale(0.5 1.42187)">
<stop stop-color="#C4C4C4"/>
<stop offset="1" stop-color="#C4C4C4" stop-opacity="0"/>
</radialGradient>
</defs>
</svg>
