<svg width="13" height="12" viewBox="0 0 13 12" fill="none" xmlns="http://www.w3.org/2000/svg">
<path d="M6.335 4.2H7.53879V3H6.335M6.9369 10.8C4.28255 10.8 2.12175 8.646 2.12175 6C2.12175 3.354 4.28255 1.2 6.9369 1.2C9.59124 1.2 11.752 3.354 11.752 6C11.752 8.646 9.59124 10.8 6.9369 10.8ZM6.9369 0C6.14648 0 5.3638 0.155195 4.63355 0.456723C3.9033 0.758251 3.23978 1.20021 2.68087 1.75736C1.5521 2.88258 0.917969 4.4087 0.917969 6C0.917969 7.5913 1.5521 9.11742 2.68087 10.2426C3.23978 10.7998 3.9033 11.2417 4.63355 11.5433C5.3638 11.8448 6.14648 12 6.9369 12C8.53322 12 10.0642 11.3679 11.1929 10.2426C12.3217 9.11742 12.9558 7.5913 12.9558 6C12.9558 5.21207 12.8001 4.43185 12.4977 3.7039C12.1952 2.97595 11.7518 2.31451 11.1929 1.75736C10.634 1.20021 9.97049 0.758251 9.24024 0.456723C8.50999 0.155195 7.72731 0 6.9369 0ZM6.335 9.42857H7.53879V5.14286H6.335V9.42857Z" fill="#306A91"/>
</svg>
