<svg width="24" height="24" viewBox="0 0 24 24" fill="none" xmlns="http://www.w3.org/2000/svg">
<path d="M10.5834 16.4982H8.54167C8.38149 16.4982 8.25128 16.3691 8.25 16.2089V4.16669C8.25 3.52234 7.72765 3 7.08331 3C6.43896 3 5.91662 3.52234 5.91662 4.16669V16.2089C5.91662 16.37 5.78603 16.5005 5.62494 16.5005H3.58324C3.34749 16.5006 3.13494 16.6425 3.04457 16.8603C2.95421 17.078 3.00379 17.3288 3.17023 17.4957L6.6703 20.9958C6.89809 21.2235 7.26735 21.2235 7.49515 20.9958L10.9952 17.4957C11.1615 17.3289 11.2112 17.0785 11.1211 16.8608C11.031 16.6432 10.8189 16.5011 10.5834 16.5005V16.4982Z" fill="white"/>
<path d="M20.5834 7.66841H18.5417C18.3815 7.66841 18.2513 7.79758 18.25 7.95775V19.9999C18.25 20.6443 17.7277 21.1666 17.0833 21.1666C16.439 21.1666 15.9166 20.6443 15.9166 19.9999V7.95775C15.9166 7.79666 15.786 7.66608 15.6249 7.66608H13.5832C13.3475 7.66603 13.1349 7.52408 13.0446 7.30633C12.9542 7.08859 13.0038 6.83785 13.1702 6.67089L16.6703 3.17082C16.8981 2.9431 17.2674 2.9431 17.4951 3.17082L20.9952 6.67089C21.1615 6.8377 21.2112 7.08815 21.1211 7.3058C21.031 7.52344 20.8189 7.66556 20.5834 7.66608V7.66841Z" fill="white"/>
</svg>
