<svg width="44" height="56" viewBox="0 0 44 56" fill="none" xmlns="http://www.w3.org/2000/svg">
<path fill-rule="evenodd" clip-rule="evenodd" d="M24.7894 39.7481L12.328 28.7653C12.1185 28.5643 12 28.2864 12 27.9959C12 27.7054 12.1185 27.4276 12.328 27.2265L24.7894 16.2488C24.9891 16.0714 25.2522 15.9827 25.5185 16.0028C25.7848 16.023 26.0315 16.1503 26.2023 16.3558L27.7581 18.2056C28.1197 18.6348 28.0703 19.2748 27.6472 19.6434L18.2015 27.8075C18.1463 27.8549 18.1146 27.9241 18.1146 27.9969C18.1146 28.0697 18.1463 28.1389 18.2015 28.1864L27.6442 36.3535C27.8487 36.5312 27.9742 36.783 27.9929 37.0534C28.0169 37.3223 27.9311 37.5896 27.7551 37.7943L26.1983 39.6451C26.0272 39.85 25.7806 39.977 25.5145 39.9972C25.2483 40.0173 24.9854 39.9289 24.7854 39.7521L24.7894 39.7481Z" fill="#222222"/>
</svg>
